<svg xmlns="http://www.w3.org/2000/svg" width="24" height="24" viewBox="0 0 24 24" fill="none">
  <g clip-path="url(#clip0_1_7770)">
    <path d="M12 24C18.6274 24 24 18.6274 24 12C24 5.37258 18.6274 0 12 0C5.37258 0 0 5.37258 0 12C0 18.6274 5.37258 24 12 24Z" fill="url(#paint0_linear_1_7770)"/>
    <path fill-rule="evenodd" clip-rule="evenodd" d="M5.43177 11.8733C8.93001 10.3492 11.2627 9.3444 12.4299 8.85893C15.7624 7.47282 16.4549 7.23203 16.9062 7.22408C17.0055 7.22234 17.2275 7.24694 17.3712 7.3636C17.4926 7.46211 17.526 7.59518 17.542 7.68857C17.558 7.78197 17.5779 7.99473 17.5621 8.16097C17.3815 10.0585 16.6001 14.6631 16.2026 16.7884C16.0343 17.6876 15.7031 17.9891 15.3825 18.0186C14.6856 18.0828 14.1564 17.5581 13.4815 17.1157C12.4253 16.4233 11.8287 15.9924 10.8035 15.3168C9.61872 14.536 10.3868 14.1069 11.062 13.4056C11.2387 13.2221 14.3091 10.4294 14.3685 10.176C14.3759 10.1443 14.3828 10.0262 14.3126 9.96385C14.2425 9.90148 14.1389 9.92281 14.0642 9.93977C13.9583 9.96381 12.271 11.079 9.00252 13.2853C8.52361 13.6142 8.08982 13.7744 7.70117 13.766C7.2727 13.7568 6.44851 13.5238 5.83582 13.3246C5.08431 13.0803 4.48704 12.9512 4.53905 12.5363C4.56614 12.3202 4.86371 12.0992 5.43177 11.8733Z" fill="white"/>
  </g>
  <defs>
    <linearGradient id="paint0_linear_1_7770" x1="12" y1="0" x2="12" y2="23.822" gradientUnits="userSpaceOnUse">
      <stop stop-color="#2AABEE"/>
      <stop offset="1" stop-color="#229ED9"/>
    </linearGradient>
    <clipPath id="clip0_1_7770">
      <rect width="24" height="24" fill="white"/>
    </clipPath>
  </defs>
</svg>