<svg width="270" height="33" viewBox="0 0 270 33" fill="none" xmlns="http://www.w3.org/2000/svg">
<g clip-path="url(#clip0_1_7720)">
<path d="M90.0579 7.49377H97.1432C102.773 7.49377 106.679 11.0743 106.679 16.4863C106.679 21.8983 102.773 25.4513 97.1432 25.4513H90.0579V7.49377ZM97.1432 22.0853C100.7 22.0853 102.773 19.5278 102.773 16.4849C102.773 13.442 100.833 10.8584 97.1432 10.8584H93.8839V22.0853H97.1432Z" fill="#09090B"/>
<path d="M108.917 7.49377H112.797V18.1555C112.797 20.6594 114.171 22.3823 116.972 22.3823C119.774 22.3823 121.094 20.6594 121.094 18.1555V7.49377H124.974V18.2628C124.974 22.7315 122.415 25.7744 116.974 25.7744C111.533 25.7744 108.92 22.7054 108.92 18.2903V7.49377H108.917Z" fill="#09090B"/>
<path d="M143.873 12.529L138.809 25.4513H137.139L132.074 12.529V25.4513H128.25V7.49377H133.61L137.974 18.6931L142.338 7.49377H147.725V25.4513H143.873V12.529Z" fill="#09090B"/>
<path d="M151.071 7.49377H160.527C163.949 7.49377 165.699 9.67452 165.699 12.0711C165.699 14.333 164.298 15.84 162.601 16.1906C164.513 16.4863 166.048 18.3439 166.048 20.6058C166.048 23.298 164.243 25.4513 160.822 25.4513H151.07V7.49377H151.071ZM159.692 14.7084C160.985 14.7084 161.793 13.8738 161.793 12.716C161.793 11.5583 160.985 10.7511 159.692 10.7511H154.898V14.7084H159.692ZM159.827 22.1925C161.281 22.1925 162.144 21.3579 162.144 20.0654C162.144 18.9351 161.335 17.9658 159.827 17.9658H154.898V22.1925H159.827Z" fill="#09090B"/>
<path d="M178.811 13.1216L175.687 25.4526H171.619L166.473 7.49512H170.756L173.908 20.4724L177.33 7.49512H180.319L183.713 20.4724L186.838 7.49512H191.148L186.03 25.4526H181.962L178.81 13.1216H178.811Z" fill="#09090B"/>
<path d="M202.965 22.3561H194.937L193.806 25.4526H189.604L196.555 7.49512H201.35L208.273 25.4526H204.097L202.966 22.3561H202.965ZM195.961 19.0451H201.914L198.95 10.8061L195.961 19.0451Z" fill="#09090B"/>
<path d="M212.349 18.1019L205.426 7.49377H209.79L214.261 14.7084L218.679 7.49377H223.043L216.174 18.1019V25.4513H212.349V18.1019Z" fill="#09090B"/>
<path d="M224.457 20.0131C225.723 21.3317 227.69 22.4359 230.168 22.4359C232.269 22.4359 233.293 21.4404 233.293 20.416C233.293 19.0699 231.73 18.612 229.656 18.128C226.72 17.4556 222.949 16.6471 222.949 12.6362C222.949 9.64837 225.536 7.22424 229.765 7.22424C232.621 7.22424 234.992 8.08637 236.769 9.72812L234.641 12.5276C233.187 11.1815 231.247 10.5627 229.495 10.5627C227.744 10.5627 226.855 11.3162 226.855 12.3929C226.855 13.6042 228.363 13.981 230.438 14.4664C233.401 15.1387 237.172 16.0284 237.172 20.0117C237.172 23.2966 234.828 25.773 229.98 25.773C226.532 25.773 224.053 24.6152 222.356 22.9199L224.457 20.0117V20.0131Z" fill="#09090B"/>
<path d="M241.163 21.3867C242.349 21.3867 243.345 22.3836 243.345 23.5675C243.345 24.7513 242.349 25.7482 241.163 25.7482C239.978 25.7482 238.981 24.7513 238.981 23.5675C238.981 22.3836 239.978 21.3867 241.163 21.3867Z" fill="#09090B"/>
<path d="M246.268 7.49377H250.092V25.4513H246.268V7.49377Z" fill="#09090B"/>
<path d="M253.379 7.49377H260.464C266.094 7.49377 270 11.0743 270 16.4863C270 21.8983 266.094 25.4513 260.464 25.4513H253.379V7.49377ZM260.464 22.0853C264.021 22.0853 266.094 19.5278 266.094 16.4849C266.094 13.442 264.154 10.8584 260.464 10.8584H257.205V22.0853H260.464Z" fill="#09090B"/>
<path d="M32.1935 16.1562C32.1935 25.0786 24.9554 32.3125 16.0279 32.3125H0.341196C0.152713 32.3125 0 32.1599 0 31.9715V24.5424C0 24.354 0.152713 24.2014 0.341196 24.2014H15.34C19.7852 24.2014 23.3884 20.6003 23.3884 16.1576C23.3884 11.715 19.7852 8.11388 15.34 8.11388H0.341196C0.152713 8.11388 0 7.96125 0 7.77287V0.341C0 0.152625 0.152713 0 0.341196 0H16.0279C24.9554 0 32.1935 7.23388 32.1935 16.1562Z" fill="#FE4E30"/>
<path d="M72.7792 0.341V14.6094C72.7792 24.7665 64.5409 33 54.378 33C44.215 33 35.9768 24.7665 35.9768 14.6094V0.341C35.9768 0.152625 36.1295 0 36.318 0H44.4393C44.6278 0 44.7805 0.152625 44.7805 0.341V14.6094C44.7805 19.9059 49.0771 24.2 54.3766 24.2C59.6761 24.2 63.9727 19.9059 63.9727 14.6094V0.341C63.9727 0.152625 64.1255 0 64.3139 0H72.4352C72.6237 0 72.7764 0.152625 72.7764 0.341H72.7792Z" fill="#FE4E30"/>
<path d="M58.405 0H50.2824C50.0939 0 49.9412 0.152671 49.9412 0.341V15.1965C49.9412 15.3848 50.0939 15.5375 50.2824 15.5375H58.405C58.5935 15.5375 58.7462 15.3848 58.7462 15.1965V0.341C58.7462 0.152671 58.5935 0 58.405 0Z" fill="#FE4E30"/>
</g>
<defs>
<clipPath id="clip0_1_7720">
<rect width="270" height="33" fill="white"/>
</clipPath>
</defs>
</svg>
